<?xml version="1.0" encoding="utf-8"?>
<!-- Generator: Adobe Illustrator 23.0.3, SVG Export Plug-In . SVG Version: 6.00 Build 0)  -->
<svg version="1.1" xmlns="http://www.w3.org/2000/svg" xmlns:xlink="http://www.w3.org/1999/xlink" x="0px" y="0px"
	 viewBox="0 0 1625.02 500" style="enable-background:new 0 0 1625.02 500;" xml:space="preserve">
<style type="text/css">
	.st0{display:none;fill:#FFB726;}
	.st1{fill:#fafafa;}
	.st2{fill:#F92626;}
	.st3{fill:#fcfcfc;}
</style>
<g id="Layer_1">
	<rect class="st0" width="1625.02" height="500"/>
</g>
<g id="Layer_2">
	<g>
		<path class="st1" d="M201.95,174.54v52.6h-32.24V179.8c0-13.24-5.77-18.83-15.1-18.83c-10.35,0-18.33,6.45-18.33,21.72v44.46
			h-32.24v-125.9h32.24v42.42c7.13-6.62,16.8-10.01,27.66-10.01C185.49,133.64,201.95,146.03,201.95,174.54z"/>
		<path class="st1" d="M218.58,107.85c0-9.67,7.81-17.14,19.68-17.14s19.68,6.96,19.68,16.63c0,10.18-7.81,17.65-19.68,17.65
			S218.58,117.52,218.58,107.85z M222.14,135.17h32.24v91.97h-32.24V135.17z"/>
		<path class="st1" d="M275.25,101.23h32.24v125.9h-32.24V101.23z"/>
		<path class="st1" d="M328.35,101.23h32.24v125.9h-32.24V101.23z"/>
		<path class="st1" d="M375.69,180.98c0-27.66,21.89-47.34,51.92-47.34c30.37,0,51.92,19.68,51.92,47.34
			c0,27.83-21.55,47.68-51.92,47.68C397.58,228.66,375.69,208.81,375.69,180.98z M446.96,180.98c0-13.91-8.31-21.72-19.34-21.72
			c-10.86,0-19.34,7.81-19.34,21.72c0,14.08,8.48,22.06,19.34,22.06C438.64,203.04,446.96,195.07,446.96,180.98z"/>
		<g>
			<rect x="494.46" y="101.23" class="st1" width="18.48" height="125.9"/>
			<path class="st1" d="M570.8,133.64c-10.69,0-19.34,3.05-25.62,9.5v-41.91H526.7v125.9h16.95v-9.16
				c6.11,7.3,15.1,10.69,27.15,10.69c24.94,0,45.13-18.33,45.13-47.68C615.94,151.8,595.75,133.64,570.8,133.64z M564.02,203.04
				c-10.86,0-19.34-7.98-19.34-22.06c0-13.91,8.48-21.72,19.34-21.72s19.34,7.81,19.34,21.72
				C583.36,195.07,574.88,203.04,564.02,203.04z"/>
			<rect x="512.94" y="101.23" class="st2" width="13.76" height="125.9"/>
		</g>
		<path class="st1" d="M715.03,176.06v51.07H685v-11.88c-4.58,8.82-13.74,13.4-27.15,13.4c-22.06,0-34.27-12.39-34.27-28.34
			c0-16.97,12.39-27.49,40.89-27.49h18.33c-0.51-9.33-6.79-14.59-19.51-14.59c-8.82,0-18.67,3.05-24.94,7.98l-10.86-21.89
			c10.52-6.96,26.13-10.69,40.55-10.69C697.89,133.64,715.03,146.88,715.03,176.06z M682.79,197.61v-7.98h-13.91
			c-10.35,0-14.08,3.73-14.08,9.33c0,5.43,4.41,9.33,12.05,9.33C673.97,208.3,680.25,204.91,682.79,197.61z"/>
		<path class="st1" d="M796.98,133.64v29.01c-2.88-0.34-4.92-0.51-7.3-0.51c-13.07,0-22.06,6.62-22.06,22.74v42.25h-32.24v-91.97
			h30.71v11.03C772.72,137.88,783.41,133.64,796.98,133.64z"/>
		<path class="st1" d="M967.17,174.54v52.6h-32.24V179.8c0-13.24-5.43-18.83-13.91-18.83c-9.33,0-16.12,6.28-16.12,20.53v45.64
			h-32.24V179.8c0-13.24-5.26-18.83-13.91-18.83c-9.5,0-16.29,6.28-16.29,20.53v45.64h-32.24v-91.97h30.71v9.67
			c6.96-7.47,16.63-11.2,27.49-11.2c12.56,0,23.25,4.58,29.69,14.42c7.3-9.16,18.67-14.42,31.9-14.42
			C951.39,133.64,967.17,146.03,967.17,174.54z"/>
		<path class="st1" d="M1073.72,176.06v51.07h-30.03v-11.88c-4.58,8.82-13.74,13.4-27.15,13.4c-22.06,0-34.28-12.39-34.28-28.34
			c0-16.97,12.39-27.49,40.89-27.49h18.33c-0.51-9.33-6.79-14.59-19.51-14.59c-8.82,0-18.66,3.05-24.94,7.98l-10.86-21.89
			c10.52-6.96,26.13-10.69,40.55-10.69C1056.59,133.64,1073.72,146.88,1073.72,176.06z M1041.49,197.61v-7.98h-13.91
			c-10.35,0-14.08,3.73-14.08,9.33c0,5.43,4.41,9.33,12.05,9.33C1032.66,208.3,1038.94,204.91,1041.49,197.61z"/>
		<path class="st1" d="M1191.99,174.54v52.6h-32.24V179.8c0-13.24-5.77-18.83-15.1-18.83c-10.35,0-18.33,6.45-18.33,21.72v44.46
			h-32.24v-91.97h30.71v10.01c7.3-7.64,17.65-11.54,29.19-11.54C1175.53,133.64,1191.99,146.03,1191.99,174.54z"/>
	</g>
	<g>
		<path class="st3" d="M158.95,296.3c0,15.14-10.92,24.21-29.05,24.21h-20.6v23.59h-5.25v-72.1h25.85
			C148.03,271.99,158.95,281.05,158.95,296.3z M153.59,296.3c0-12.46-8.24-19.57-23.69-19.57h-20.6v39.04h20.6
			C145.35,315.76,153.59,308.66,153.59,296.3z"/>
		<path class="st3" d="M170.79,308.04c0-20.91,15.97-36.57,37.49-36.57c21.42,0,37.49,15.55,37.49,36.57s-16.07,36.57-37.49,36.57
			C186.76,344.6,170.79,328.95,170.79,308.04z M240.42,308.04c0-18.23-13.8-31.72-32.14-31.72c-18.44,0-32.24,13.49-32.24,31.72
			s13.8,31.72,32.24,31.72C226.62,339.76,240.42,326.27,240.42,308.04z"/>
		<path class="st3" d="M314.06,344.09l-17.2-24.1c-2.27,0.31-4.53,0.51-7,0.51h-20.6v23.59h-5.25v-72.1h25.85
			c18.13,0,29.05,9.06,29.05,24.31c0,11.43-6.18,19.36-16.89,22.56l18.03,25.24H314.06z M289.86,315.87
			c15.45,0,23.69-7.21,23.69-19.57c0-12.46-8.24-19.57-23.69-19.57h-20.6v39.14H289.86z"/>
		<path class="st3" d="M350.94,276.73h-25.96v-4.74h57.17v4.74h-25.96v67.36h-5.25V276.73z"/>
		<path class="st3" d="M400.38,276.73v30.8h38.42v4.74h-38.42v31.83h-5.25v-72.1h48.21v4.74H400.38z"/>
		<path class="st3" d="M452.29,308.04c0-20.91,15.97-36.57,37.49-36.57c21.42,0,37.49,15.55,37.49,36.57s-16.07,36.57-37.49,36.57
			C468.26,344.6,452.29,328.95,452.29,308.04z M521.92,308.04c0-18.23-13.8-31.72-32.14-31.72c-18.44,0-32.24,13.49-32.24,31.72
			s13.8,31.72,32.24,31.72C508.12,339.76,521.92,326.27,521.92,308.04z"/>
		<path class="st3" d="M545.51,271.99h5.25v67.36h41.51v4.74h-46.76V271.99z"/>
		<path class="st3" d="M605.76,271.99h5.25v72.1h-5.25V271.99z"/>
		<path class="st3" d="M629.25,308.04c0-20.91,15.97-36.57,37.49-36.57c21.42,0,37.49,15.55,37.49,36.57s-16.07,36.57-37.49,36.57
			C645.21,344.6,629.25,328.95,629.25,308.04z M698.87,308.04c0-18.23-13.8-31.72-32.14-31.72c-18.44,0-32.24,13.49-32.24,31.72
			s13.8,31.72,32.24,31.72C685.07,339.76,698.87,326.27,698.87,308.04z"/>
	</g>
	<circle class="st2" cx="721.03" cy="340.38" r="4.23"/>
</g>
</svg>
