<?xml version="1.0" encoding="utf-8"?>
<!-- Generator: Adobe Illustrator 23.0.3, SVG Export Plug-In . SVG Version: 6.00 Build 0)  -->
<svg version="1.1" id="Layer_1" xmlns="http://www.w3.org/2000/svg" xmlns:xlink="http://www.w3.org/1999/xlink" x="0px" y="0px"
	 viewBox="0 0 500 500" style="enable-background:new 0 0 500 500;" xml:space="preserve">
<style type="text/css">
	.st0{fill:#EDEDED;}
	.st1{fill:#EE2E2B;}
</style>
<g>
	<g>
		<g>
			<path class="st0" d="M122.91,93.2c0,16.91-0.1,33.36,0.02,49.81c0.54,72.09,1.12,144.19,1.78,216.28c0.02,2.45-0.77,3.77-3.07,5
				c-17.43,9.31-34.77,18.77-52.14,28.17c-0.85,0.46-4.06,1.59-5.48,2.24c0-133.16,0-263,0-394.69
				c124.1,64.97,246.74,129.6,370.67,194.49c-7.13,3.88-13.84,7.53-20.56,11.17c-11.61,6.29-23.26,12.52-34.81,18.9
				c-1.97,1.09-3.36,1.02-5.3,0.01c-62.21-32.64-124.46-65.22-186.7-97.81c-20.31-10.64-40.62-21.28-60.94-31.91
				C125.31,94.3,124.19,93.81,122.91,93.2z"/>
			<path class="st1" d="M131.82,496.91c-0.08-1.49-0.17-2.41-0.17-3.34c-0.16-18.47-0.24-36.95-0.53-55.42
				c-0.04-2.52,0.95-3.77,3.17-4.97c81.49-44.06,162.95-88.17,244.42-132.28c1.37-0.74,2.71-1.51,4.46-2.48
				c-10.49-5.5-20.56-10.78-30.64-16.06c-71.85-37.62-143.64-75.35-215.66-112.7c-6.35-3.29-8.38-6.75-8.22-13.22
				c0.39-16.44-0.1-32.91-0.23-49.36c-0.01-1.15,0-2.29,0-4.18c124.06,64.95,247.55,129.61,371.65,194.58
				C377.15,364.06,254.76,430.33,131.82,496.91z"/>
			<path class="st0" d="M371.49,298.79C248.73,365.26,123.2,433.35,0.12,500c-0.23-132.22-0.05-130.7,0-395.66
				c3.26,1.66,6.05,3.04,8.8,4.48c15.52,8.12,31,16.29,46.57,24.32c2.31,1.19,3.16,2.51,3.18,4.97
				c0.62,86.95-0.81,174.85-0.12,261.8c0.01,1.56,0,3.12,0,5.25c1.52-0.73,4.64-2.08,5.57-2.59
				c70.56-38.21,141.12-76.42,211.68-114.63c11.61-6.29,23.2-12.6,34.89-18.77c1.13-0.59,3.19-0.75,4.27-0.19
				c18.58,9.59,37.08,19.32,55.59,29.02C370.74,298.1,370.88,298.28,371.49,298.79z"/>
		</g>
		<polyline class="st1" points="128.5,115.12 128.5,165.42 146.55,174.7 		"/>
	</g>
</g>
</svg>
